<svg width="388" height="139" viewBox="0 0 388 139" fill="none" xmlns="http://www.w3.org/2000/svg">
<path d="M339.002 65.3879L306.222 32.665C305.683 32.1222 305.043 31.6913 304.337 31.3973C303.631 31.1032 302.874 30.9518 302.11 30.9518C301.345 30.9518 300.588 31.1032 299.882 31.3973C299.176 31.6913 298.536 32.1222 297.997 32.665C296.919 33.7501 296.313 35.2181 296.313 36.7481C296.313 38.2782 296.919 39.7461 297.997 40.8313L326.666 69.7896L297.997 98.4583C296.919 99.5435 296.313 101.011 296.313 102.541C296.313 104.072 296.919 105.539 297.997 106.625C298.534 107.172 299.174 107.607 299.879 107.905C300.585 108.204 301.343 108.359 302.11 108.362C302.876 108.359 303.634 108.204 304.34 107.905C305.046 107.607 305.685 107.172 306.222 106.625L339.002 73.9017C339.59 73.3593 340.06 72.7011 340.38 71.9685C340.701 71.2358 340.867 70.4446 340.867 69.6448C340.867 68.845 340.701 68.0538 340.38 67.3211C340.06 66.5885 339.59 65.9303 339.002 65.3879V65.3879Z" fill="#BDBDBD"/>
<line x1="332" y1="70" x2="-5.24537e-07" y2="70" stroke="#BDBDBD" stroke-width="12"/>
</svg>
