<svg width="13" height="13" viewBox="0 0 13 13" fill="none" xmlns="http://www.w3.org/2000/svg">
<path d="M9.99311 1.40604L9.94706 3.89961C9.94048 4.24173 10.1577 4.69571 10.434 4.89966L12.0657 6.13659C13.1118 6.92611 12.9407 7.89328 11.6906 8.28804L9.56552 8.95255C9.21024 9.0644 8.83522 9.45258 8.7431 9.81444L8.2365 11.7488C7.83516 13.2752 6.83503 13.4265 6.00604 12.0843L4.8481 10.2092C4.63756 9.86708 4.13753 9.61048 3.74277 9.63022L1.5453 9.74207C-0.0271627 9.82102 -0.474564 8.91307 0.551812 7.71563L1.85451 6.20239C2.09794 5.91947 2.20979 5.39313 2.09794 5.03784L1.43346 2.91271C1.04528 1.66263 1.74268 0.971808 2.98617 1.37973L4.92708 2.01792C5.25606 2.12319 5.74951 2.05081 6.02584 1.84685L8.05227 0.38624C9.14444 -0.40328 10.0194 0.0572734 9.99311 1.40604Z" fill="#368468"/>
<path opacity="0.4" d="M12.7236 12.1501L10.73 10.1565C10.5392 9.96573 10.2234 9.96573 10.0326 10.1565C9.84183 10.3473 9.84183 10.6631 10.0326 10.8539L12.0262 12.8475C12.1249 12.9462 12.2499 12.9922 12.3749 12.9922C12.4999 12.9922 12.6249 12.9462 12.7236 12.8475C12.9144 12.6567 12.9144 12.3409 12.7236 12.1501Z" fill="#368468"/>
</svg>
